<?xml version="1.0" standalone="no"?>
<!DOCTYPE svg PUBLIC "-//W3C//DTD SVG 20010904//EN"
 "http://www.w3.org/TR/2001/REC-SVG-20010904/DTD/svg10.dtd">
<svg version="1.0" xmlns="http://www.w3.org/2000/svg"
 width="1658.000000pt" height="1271.000000pt" viewBox="0 0 1658.000000 1271.000000"
 preserveAspectRatio="xMidYMid meet">

<g transform="translate(0.000000,1271.000000) scale(0.100000,-0.100000)"
fill="#000000" stroke="none">
<path d="M2113 11687 c8 -190 25 -344 43 -379 l15 -28 -56 0 -55 0 0 -190 0
-190 7040 0 7040 0 0 185 0 185 -6697 3 c-3684 1 -6813 2 -6954 2 l-257 0 -11
85 c-18 133 -30 287 -31 386 l0 92 -42 0 -41 1 6 -152z m265 -508 c40 -14 62
-48 62 -97 0 -72 -83 -118 -149 -83 -22 12 -51 60 -51 86 0 28 29 74 58 89 33
18 41 19 80 5z m260 0 c40 -14 62 -48 62 -97 0 -72 -83 -118 -149 -83 -22 12
-51 60 -51 86 0 28 29 74 58 89 33 18 41 19 80 5z m260 0 c40 -14 62 -48 62
-97 0 -105 -149 -131 -190 -32 -18 43 -3 89 39 117 39 26 46 27 89 12z"/>
<path d="M218 11527 c-128 -36 -210 -148 -209 -285 1 -193 104 -267 535 -383
193 -52 183 -48 168 -58 -14 -8 77 -201 162 -345 26 -43 45 -80 43 -82 -2 -2
-40 25 -84 61 -125 100 -241 174 -301 191 -100 30 -212 -5 -286 -87 -107 -119
-101 -296 15 -404 27 -25 66 -53 87 -62 82 -36 249 -10 540 83 79 26 145 45
146 43 2 -2 39 -49 83 -104 168 -209 384 -389 636 -529 38 -21 67 -39 65 -40
-2 -2 -57 5 -123 15 -66 10 -172 18 -235 18 -101 1 -121 -2 -165 -23 -189 -90
-228 -342 -74 -480 58 -52 121 -76 199 -76 69 0 110 13 170 54 62 42 203 179
318 309 52 59 100 106 106 103 49 -20 47 -21 44 24 l-3 42 -106 47 c-221 99
-430 239 -601 403 l-88 83 46 75 c65 107 167 313 198 398 51 142 28 262 -66
348 -64 59 -120 78 -217 72 -61 -4 -88 -10 -124 -31 -58 -35 -112 -97 -131
-155 -34 -98 -17 -187 74 -379 27 -57 47 -103 45 -103 -11 0 -166 265 -233
397 -42 84 -84 154 -92 156 -9 2 -21 26 -29 58 -27 110 -122 386 -155 456 -62
129 -138 189 -254 198 -32 3 -77 -1 -104 -8z"/>
<path d="M6263 9480 c-123 -32 -238 -88 -287 -139 -27 -28 -30 -38 -33 -113
-5 -111 -30 -183 -115 -325 -116 -194 -139 -250 -145 -345 -5 -72 -1 -99 27
-203 45 -166 41 -244 -18 -368 -23 -48 -62 -119 -87 -158 -25 -39 -44 -78 -41
-85 11 -28 162 6 228 51 20 14 39 22 41 17 12 -18 57 -248 68 -342 14 -122 7
-417 -12 -533 -11 -69 -15 -78 -32 -73 -23 6 -20 -5 36 -103 70 -124 130 -174
165 -139 29 29 6 88 -58 145 l-25 22 35 1 c29 0 43 -9 90 -58 106 -112 157
-243 146 -379 l-6 -83 27 11 c16 6 100 38 188 71 88 33 186 73 217 89 113 57
167 126 192 243 8 38 21 75 30 84 21 21 106 53 106 40 0 -6 -12 -63 -26 -127
-57 -254 -132 -437 -215 -522 -46 -47 -46 -48 -15 -35 139 58 253 185 299 331
25 82 30 261 8 357 -11 51 -10 60 8 96 52 103 69 356 37 577 -10 66 -18 165
-18 221 0 93 3 110 42 225 45 130 62 249 43 292 -6 12 -23 54 -38 92 -110 280
-106 260 -85 453 7 61 9 135 6 165 -17 130 -104 239 -242 302 -62 29 -95 53
-173 129 -53 52 -115 103 -138 115 -53 26 -131 27 -230 1z"/>
<path d="M7350 8341 c19 -11 130 -20 130 -10 0 11 -40 19 -95 19 -33 -1 -45
-4 -35 -9z"/>
<path d="M7342 8140 c54 -163 63 -183 66 -159 3 27 -40 145 -60 164 -8 7 -9 5
-6 -5z"/>
<path d="M5680 7314 c0 -10 5 -26 10 -34 8 -11 9 -7 4 15 -8 37 -14 45 -14 19z"/>
<path d="M5710 7240 c6 -11 13 -20 16 -20 2 0 0 9 -6 20 -6 11 -13 20 -16 20
-2 0 0 -9 6 -20z"/>
<path d="M5758 7153 c5 -21 7 -23 10 -9 2 10 0 22 -6 28 -6 6 -7 0 -4 -19z"/>
<path d="M5773 7085 c0 -22 2 -30 4 -17 2 12 2 30 0 40 -3 9 -5 -1 -4 -23z"/>
<path d="M5782 6980 c0 -19 2 -27 5 -17 2 9 2 25 0 35 -3 9 -5 1 -5 -18z"/>
<path d="M5771 6908 c0 -9 -4 -25 -7 -35 -5 -17 -5 -17 6 0 6 10 9 25 7 35 -4
15 -5 15 -6 0z"/>
<path d="M5751 6834 c0 -11 3 -14 6 -6 3 7 2 16 -1 19 -3 4 -6 -2 -5 -13z"/>
<path d="M5742 6785 c0 -16 2 -22 5 -12 2 9 2 23 0 30 -3 6 -5 -1 -5 -18z"/>
<path d="M5733 6695 c0 -27 2 -38 4 -22 2 15 2 37 0 50 -2 12 -4 0 -4 -28z"/>
<path d="M5724 6505 c0 -55 1 -76 3 -47 2 29 2 74 0 100 -2 26 -3 2 -3 -53z"/>
<path d="M5846 6558 c16 -53 84 -201 100 -219 44 -49 59 2 23 74 -21 40 -116
167 -126 167 -2 0 -1 -10 3 -22z"/>
<path d="M5415 6361 c-16 -7 -7 -11 38 -20 65 -14 90 -10 81 14 -7 16 -82 20
-119 6z"/>
<path d="M5505 6293 c-70 -14 -71 -15 -50 -23 35 -13 113 -21 118 -13 14 22
-29 44 -68 36z"/>
<path d="M11855 6231 c-16 -10 -68 -58 -115 -106 -47 -49 -71 -79 -55 -67 17
11 59 51 95 87 36 37 79 76 95 86 17 10 26 19 20 19 -5 0 -23 -9 -40 -19z"/>
<path d="M12248 6243 c7 -3 16 -2 19 1 4 3 -2 6 -13 5 -11 0 -14 -3 -6 -6z"/>
<path d="M12367 6200 c55 -32 95 -81 119 -147 8 -23 13 -30 14 -18 0 38 -63
128 -114 163 -26 17 -53 32 -60 32 -6 0 13 -14 41 -30z"/>
<path d="M5713 6170 c0 -30 2 -43 4 -27 2 15 2 39 0 55 -2 15 -4 2 -4 -28z"/>
<path d="M11822 6039 c-45 -44 -102 -89 -125 -99 -23 -11 -36 -20 -29 -20 30
0 92 44 167 119 44 45 77 81 75 81 -3 0 -42 -37 -88 -81z"/>
<path d="M12290 6113 c8 -3 30 -20 49 -37 25 -23 31 -26 23 -10 -13 24 -55 54
-74 53 -9 0 -8 -2 2 -6z"/>
<path d="M5702 6060 c0 -19 2 -27 5 -17 2 9 2 25 0 35 -3 9 -5 1 -5 -18z"/>
<path d="M11435 6015 c-14 -13 -25 -30 -25 -37 1 -7 7 -1 16 14 17 32 32 37
129 41 l70 3 -83 2 c-76 2 -85 0 -107 -23z"/>
<path d="M5692 5980 c0 -19 2 -27 5 -17 2 9 2 25 0 35 -3 9 -5 1 -5 -18z"/>
<path d="M12501 5984 c0 -11 3 -14 6 -6 3 7 2 16 -1 19 -3 4 -6 -2 -5 -13z"/>
<path d="M12328 5902 c-81 -135 -90 -152 -85 -152 8 0 140 220 135 225 -2 2
-24 -31 -50 -73z"/>
<path d="M11990 5950 c-11 -11 -20 -31 -20 -44 0 -24 210 -310 242 -330 26
-16 66 4 90 44 l21 35 -33 -38 c-54 -63 -67 -56 -197 118 -62 83 -113 159
-113 171 0 24 29 54 51 54 19 0 50 -34 124 -132 31 -43 59 -78 62 -78 7 0 -6
18 -70 105 -90 121 -115 137 -157 95z"/>
<path d="M12467 5913 c-15 -25 -26 -47 -24 -50 3 -2 17 17 32 42 35 60 28 67
-8 8z"/>
<path d="M5682 5915 c0 -16 2 -22 5 -12 2 9 2 23 0 30 -3 6 -5 -1 -5 -18z"/>
<path d="M11533 5905 c-3 -9 -3 -19 1 -22 3 -4 6 1 6 10 0 12 12 17 53 20 l52
3 -53 2 c-39 2 -54 -2 -59 -13z"/>
<path d="M5672 5855 c0 -16 2 -22 5 -12 2 9 2 23 0 30 -3 6 -5 -1 -5 -18z"/>
<path d="M12432 5825 c0 -16 2 -22 5 -12 2 9 2 23 0 30 -3 6 -5 -1 -5 -18z"/>
<path d="M5662 5795 c0 -16 2 -22 5 -12 2 9 2 23 0 30 -3 6 -5 -1 -5 -18z"/>
<path d="M5652 5740 c0 -14 2 -19 5 -12 2 6 2 18 0 25 -3 6 -5 1 -5 -13z"/>
<path d="M11532 5740 c0 -14 2 -19 5 -12 2 6 2 18 0 25 -3 6 -5 1 -5 -13z"/>
<path d="M12441 5744 c0 -11 3 -14 6 -6 3 7 2 16 -1 19 -3 4 -6 -2 -5 -13z"/>
<path d="M7215 5718 c-178 -91 -553 -240 -712 -284 l-98 -27 -393 2 -392 3
-31 -69 c-27 -60 -31 -79 -32 -173 -1 -58 -5 -107 -8 -110 -3 -3 -11 -46 -17
-96 -8 -69 -7 -134 3 -275 8 -101 19 -268 24 -370 6 -103 20 -259 31 -347 14
-111 19 -208 17 -314 -1 -109 2 -164 12 -191 12 -37 12 -42 -20 -103 l-32 -65
-3 -222 c-2 -122 -12 -379 -23 -572 -19 -341 -21 -352 -51 -440 -66 -194 -116
-415 -106 -471 7 -35 25 -46 111 -65 40 -9 444 -31 452 -25 12 9 46 290 53
439 5 103 17 231 25 285 28 172 57 473 59 607 l1 130 49 108 49 108 -22 15
c-30 22 -27 34 24 81 54 52 65 89 65 219 0 266 7 346 36 414 30 73 67 245 115
548 18 111 34 200 36 198 9 -8 32 -333 38 -531 7 -204 5 -229 -25 -380 -5 -27
-12 -138 -15 -245 -8 -262 -8 -288 0 -336 5 -29 1 -61 -15 -110 -11 -38 -20
-87 -18 -109 14 -220 -12 -738 -66 -1290 -27 -274 -33 -247 71 -297 80 -38
154 -46 222 -23 28 9 58 27 65 38 15 24 186 812 260 1197 43 224 45 239 34
316 -9 68 -8 87 5 115 25 54 28 106 17 231 l-10 116 40 70 c40 70 41 71 39
169 -2 233 128 799 231 1003 73 145 73 569 -1 1010 -11 69 -24 130 -27 137 -5
7 -25 2 -67 -19z"/>
<path d="M11411 5724 c0 -11 3 -14 6 -6 3 7 2 16 -1 19 -3 4 -6 -2 -5 -13z"/>
<path d="M5642 5690 c0 -14 2 -19 5 -12 2 6 2 18 0 25 -3 6 -5 1 -5 -13z"/>
<path d="M11540 5692 c0 -24 57 -75 138 -123 104 -62 144 -98 167 -150 10 -22
20 -37 22 -35 8 8 -36 82 -66 111 -17 16 -73 54 -124 85 -54 33 -101 70 -114
89 -13 19 -23 29 -23 23z"/>
<path d="M11420 5687 c-1 -22 35 -87 68 -120 20 -21 75 -61 122 -89 104 -63
119 -75 136 -113 7 -17 13 -23 14 -13 0 30 -48 74 -142 131 -106 63 -140 95
-174 164 -13 26 -24 44 -24 40z"/>
<path d="M12460 5673 c0 -25 34 -99 75 -163 54 -83 123 -148 257 -239 183
-124 259 -206 334 -362 19 -41 32 -63 28 -49 -3 14 -24 60 -46 103 -59 113
-151 206 -312 316 -185 126 -251 200 -312 349 -13 32 -24 51 -24 45z"/>
<path d="M5632 5640 c0 -14 2 -19 5 -12 2 6 2 18 0 25 -3 6 -5 1 -5 -13z"/>
<path d="M5616 5574 c-4 -20 -5 -38 -3 -40 3 -3 8 11 11 32 4 20 5 38 3 40 -3
3 -8 -11 -11 -32z"/>
<path d="M12366 5590 c19 -74 99 -193 186 -276 34 -34 121 -101 192 -150 136
-93 187 -144 249 -246 45 -75 50 -67 5 10 -46 80 -146 177 -273 262 -178 120
-269 219 -341 373 -13 29 -21 41 -18 27z"/>
<path d="M5602 5500 c0 -14 2 -19 5 -12 2 6 2 18 0 25 -3 6 -5 1 -5 -13z"/>
<path d="M5592 5445 c0 -16 2 -22 5 -12 2 9 2 23 0 30 -3 6 -5 -1 -5 -18z"/>
<path d="M11871 5354 c0 -11 3 -14 6 -6 3 7 2 16 -1 19 -3 4 -6 -2 -5 -13z"/>
<path d="M11737 5255 c-24 -50 -20 -58 4 -12 11 22 19 41 17 43 -3 2 -12 -12
-21 -31z"/>
<path d="M11857 5245 c-23 -49 -21 -57 4 -16 11 18 19 37 17 43 -2 5 -11 -7
-21 -27z"/>
<path d="M11702 5140 c0 -14 2 -19 5 -12 2 6 2 18 0 25 -3 6 -5 1 -5 -13z"/>
<path d="M11702 5010 c0 -14 2 -19 5 -12 2 6 2 18 0 25 -3 6 -5 1 -5 -13z"/>
<path d="M11821 5004 c0 -11 3 -14 6 -6 3 7 2 16 -1 19 -3 4 -6 -2 -5 -13z"/>
<path d="M11840 4945 c1 -16 39 -82 40 -68 0 7 -9 27 -20 45 -11 18 -20 29
-20 23z"/>
<path d="M11721 4935 c0 -5 8 -26 19 -45 11 -19 19 -30 19 -25 0 6 -8 26 -19
45 -11 19 -19 31 -19 25z"/>
<path d="M12062 4844 c-12 -8 -22 -23 -21 -32 0 -13 3 -11 11 6 18 36 57 40
85 8 13 -15 23 -22 23 -17 0 17 -38 51 -58 51 -10 0 -28 -7 -40 -16z"/>
<path d="M13031 4845 c1 -19 18 -51 18 -35 0 8 -4 22 -9 30 -5 8 -9 11 -9 5z"/>
<path d="M13171 4784 c0 -11 3 -14 6 -6 3 7 2 16 -1 19 -3 4 -6 -2 -5 -13z"/>
<path d="M13182 4740 c0 -14 2 -19 5 -12 2 6 2 18 0 25 -3 6 -5 1 -5 -13z"/>
<path d="M12608 4713 c7 -3 16 -2 19 1 4 3 -2 6 -13 5 -11 0 -14 -3 -6 -6z"/>
<path d="M12673 4704 c15 -8 27 -20 27 -26 0 -6 3 -8 7 -5 9 10 -27 47 -46 47
-10 -1 -5 -7 12 -16z"/>
<path d="M12505 4681 c-66 -31 -138 -101 -161 -158 -22 -51 -11 -51 12 -1 30
68 82 118 159 154 39 18 66 33 60 34 -5 0 -37 -13 -70 -29z"/>
<path d="M13071 4674 c0 -11 3 -14 6 -6 3 7 2 16 -1 19 -3 4 -6 -2 -5 -13z"/>
<path d="M13194 4570 c0 -69 1 -97 3 -62 2 34 2 90 0 125 -2 34 -3 6 -3 -63z"/>
<path d="M12683 4623 c-12 -13 -19 -23 -14 -23 10 0 46 39 40 43 -2 2 -14 -7
-26 -20z"/>
<path d="M12598 4593 c6 -2 18 -2 25 0 6 3 1 5 -13 5 -14 0 -19 -2 -12 -5z"/>
<path d="M12534 4571 c-31 -19 -84 -80 -84 -96 0 -4 13 11 30 33 16 23 47 50
67 61 21 11 34 20 28 21 -5 0 -24 -9 -41 -19z"/>
<path d="M12320 4458 c0 -9 -6 -19 -12 -21 -10 -4 -10 -6 0 -6 14 -1 28 26 18
36 -3 4 -6 -1 -6 -9z"/>
<path d="M11719 4415 c-41 -27 -73 -67 -83 -105 -5 -17 0 -14 13 11 11 21 42
55 68 78 54 46 55 51 2 16z"/>
<path d="M13495 4418 c38 -21 78 -63 96 -103 10 -22 19 -34 19 -27 1 44 -87
143 -125 142 -5 0 -1 -6 10 -12z"/>
<path d="M12218 4404 c-39 -21 -35 -28 5 -8 37 19 44 24 31 24 -5 -1 -21 -8
-36 -16z"/>
<path d="M12431 4399 c-1 -28 -16 -51 -46 -68 -19 -11 -19 -12 -1 -9 27 4 59
51 53 79 -4 24 -4 24 -6 -2z"/>
<path d="M11863 4357 c-4 -7 -17 -19 -28 -25 -11 -6 -15 -12 -9 -12 17 0 60
37 52 45 -3 4 -10 0 -15 -8z"/>
<path d="M11754 4295 c-9 -14 -14 -28 -10 -32 3 -3 6 -1 6 5 0 7 9 21 20 32
11 11 16 20 10 20 -5 0 -17 -11 -26 -25z"/>
<path d="M12290 4310 c-18 -12 -2 -12 25 0 13 6 15 9 5 9 -8 0 -22 -4 -30 -9z"/>
<path d="M13441 4317 c2 -1 15 -11 29 -22 l25 -20 -19 23 c-11 12 -24 22 -29
22 -6 0 -8 -1 -6 -3z"/>
<path d="M12230 4274 c-30 -26 -66 -82 -57 -90 2 -3 10 9 17 26 7 17 29 44 49
60 19 17 33 30 29 30 -4 0 -20 -12 -38 -26z"/>
<path d="M11622 4255 c0 -16 2 -22 5 -12 2 9 2 23 0 30 -3 6 -5 -1 -5 -18z"/>
<path d="M13612 4240 c0 -19 2 -27 5 -17 2 9 2 25 0 35 -3 9 -5 1 -5 -18z"/>
<path d="M13580 4154 c-17 -33 -38 -54 -74 -75 -57 -32 -55 -39 2 -10 43 22
63 43 87 89 25 52 13 47 -15 -4z"/>
<path d="M13460 4180 c-9 -6 -10 -10 -3 -10 6 0 15 5 18 10 8 12 4 12 -15 0z"/>
<path d="M11620 4102 c0 -17 45 -62 62 -62 7 1 2 7 -11 14 -13 7 -30 24 -37
37 -7 13 -13 18 -14 11z"/>
<path d="M13428 4043 c7 -3 16 -2 19 1 4 3 -2 6 -13 5 -11 0 -14 -3 -6 -6z"/>
<path d="M5600 1289 c-34 -37 -94 -128 -127 -194 -34 -67 -134 -366 -159 -471
-19 -85 -21 -178 -4 -200 32 -37 122 -67 243 -79 l67 -7 0 -44 c0 -43 1 -44
34 -44 l33 0 7 61 c3 34 6 80 6 103 0 23 7 63 15 90 8 27 15 77 15 112 0 96
19 209 51 310 33 104 38 200 14 280 -20 69 -52 96 -118 102 -47 4 -57 1 -77
-19z"/>
<path d="M2349 1213 c-13 -16 -12 -17 4 -4 16 13 21 21 13 21 -2 0 -10 -8 -17
-17z"/>
<path d="M2850 1226 c0 -2 8 -10 18 -17 15 -13 16 -12 3 4 -13 16 -21 21 -21
13z"/>
<path d="M6288 1199 c-20 -8 -32 -24 -48 -67 -51 -136 -47 -251 11 -317 40
-46 46 -70 58 -253 15 -207 17 -222 41 -222 15 0 19 9 22 48 l3 47 98 -4 c53
-2 117 0 141 3 38 6 45 11 59 44 49 114 49 172 -2 239 -28 38 -43 73 -59 138
-38 155 -105 274 -183 327 -44 30 -91 35 -141 17z"/>
<path d="M2319 1173 c-13 -16 -12 -17 4 -4 16 13 21 21 13 21 -2 0 -10 -8 -17
-17z"/>
<path d="M2905 1155 c40 -56 51 -66 29 -27 -10 18 -28 41 -38 50 -12 10 -8 0
9 -23z"/>
<path d="M2293 1138 c-15 -20 -25 -38 -20 -38 3 0 12 11 21 25 17 26 16 35 -1
13z"/>
<path d="M2230 1029 c-17 -39 -17 -86 -1 -102 10 -9 10 -6 2 16 -8 21 -7 38 4
69 17 50 13 62 -5 17z"/>
<path d="M2975 1045 c23 -66 25 -86 15 -107 -11 -22 -11 -22 5 -3 17 22 13 62
-12 105 -9 16 -12 18 -8 5z"/>
<path d="M2460 808 c24 -27 45 -48 47 -48 8 0 0 9 -44 50 l-48 45 45 -47z"/>
<path d="M2750 805 c-24 -25 -42 -45 -39 -45 3 0 25 20 49 45 24 25 42 45 39
45 -3 0 -25 -20 -49 -45z"/>
<path d="M2520 736 c0 -2 8 -10 18 -17 15 -13 16 -12 3 4 -13 16 -21 21 -21
13z"/>
</g>
</svg>
