<?xml version="1.0" encoding="iso-8859-1"?>
<!-- Generator: Adobe Illustrator 19.0.0, SVG Export Plug-In . SVG Version: 6.00 Build 0)  -->
<svg version="1.1" id="Capa_1" xmlns="http://www.w3.org/2000/svg" xmlns:xlink="http://www.w3.org/1999/xlink" x="0px" y="0px"
	 viewBox="0 0 512.002 512.002" style="enable-background:new 0 0 512.002 512.002;" xml:space="preserve">
<path style="fill:#CCF7F5;" d="M429.993,315.275c-3.02,0-5.997,0.176-8.933,0.496l-55.87-121.245l61.373-133.189
	c4.663-10.12,0.24-22.103-9.88-26.766c-10.119-4.663-22.102-0.24-26.765,9.88L342.98,146.32L296.038,44.451
	c-4.663-10.12-16.646-14.541-26.765-9.88c-10.12,4.663-14.543,16.646-9.88,26.766l61.373,133.189l-55.899,121.309
	c-3.1-0.358-6.245-0.56-9.438-0.56c-45.218,0-82.007,36.787-82.007,82.007s36.787,82.007,82.007,82.007s82.007-36.787,82.007-82.007
	c0-27.652-13.771-52.134-34.802-66.996l40.346-87.555L383.193,330c-21.258,14.832-35.204,39.453-35.204,67.282
	c0,45.218,36.787,82.007,82.007,82.007c45.218,0,82.007-36.787,82.007-82.007S475.211,315.275,429.993,315.275z M255.428,438.939
	c-22.971,0-41.657-18.688-41.657-41.657c0-22.971,18.688-41.657,41.657-41.657s41.657,18.688,41.657,41.657
	C297.086,420.251,278.399,438.939,255.428,438.939z M429.993,438.939c-22.971,0-41.657-18.688-41.657-41.657
	c0-22.971,18.688-41.657,41.657-41.657s41.657,18.688,41.657,41.657C471.651,420.251,452.963,438.939,429.993,438.939z"/>
<path style="fill:#74D6D0;" d="M429.993,315.275c-3.02,0-5.997,0.176-8.933,0.496l-55.87-121.245l61.373-133.189
	c4.663-10.12,0.24-22.103-9.88-26.766c-10.119-4.663-22.102-0.24-26.765,9.88L342.98,146.32v96.41l40.214,87.269
	c-21.258,14.832-35.204,39.453-35.204,67.282c0,45.218,36.787,82.007,82.007,82.007c45.218,0,82.007-36.787,82.007-82.007
	C512,352.062,475.211,315.275,429.993,315.275z M429.993,438.939c-22.971,0-41.657-18.688-41.657-41.657
	c0-22.971,18.688-41.659,41.657-41.659s41.657,18.688,41.657,41.659C471.651,420.251,452.963,438.939,429.993,438.939z"/>
<path style="fill:#4CD6D5;" d="M105.822,423.952l-49.15-23.581c-6.175-2.963-9.153-10.335-6.304-16.562
	c2.902-6.345,10.429-9.05,16.694-6.045l56.819,27.26c6.483,3.111,14.26,0.376,17.37-6.107l0,0c3.111-6.483,0.376-14.26-6.107-17.37
	l-56.447-27.082c-6.175-2.963-9.153-10.335-6.304-16.562c2.902-6.345,10.429-9.05,16.694-6.045l56.819,27.26
	c6.483,3.111,14.26,0.376,17.37-6.107l0,0c3.111-6.483,0.376-14.26-6.107-17.37l-56.447-27.082
	c-6.175-2.963-9.153-10.335-6.304-16.562c2.902-6.345,10.429-9.05,16.694-6.045l56.819,27.26c6.483,3.111,14.26,0.376,17.37-6.107
	l0,0c3.111-6.483,0.376-14.26-6.107-17.37l-56.449-27.083c-6.175-2.963-9.153-10.335-6.304-16.562
	c2.902-6.345,10.429-9.05,16.694-6.045l56.819,27.26c6.483,3.111,14.26,0.376,17.37-6.107l0,0c3.111-6.483,0.376-14.26-6.107-17.37
	l-56.447-27.082c-6.175-2.963-9.153-10.335-6.304-16.562c2.902-6.345,10.429-9.05,16.694-6.045l56.819,27.26
	c6.483,3.111,14.26,0.376,17.37-6.107l0,0c3.111-6.483,0.376-14.26-6.107-17.37l-56.447-27.082
	c-6.175-2.963-9.153-10.335-6.304-16.562c2.902-6.345,10.429-9.05,16.694-6.045l49.521,23.759
	c10.513,5.044,23.125,0.61,28.169-9.903l0,0c4.635-9.66,3.01-20.705-3.26-28.548c-2.454-3.069-5.619-5.648-9.399-7.462
	l-49.737-23.862c-27.63-13.257-60.775-1.604-74.031,26.026c-1.304,2.71-106.873,222.523-110.357,230.05
	c-14.012,30.26-11.702,66.505,21.886,82.619c0,0,49.636,23.814,49.737,23.862c12.746,6.115,29.687,0.519,36.009-12.659l0,0
	C120.769,441.608,116.335,428.996,105.822,423.952z"/>
<g>
</g>
<g>
</g>
<g>
</g>
<g>
</g>
<g>
</g>
<g>
</g>
<g>
</g>
<g>
</g>
<g>
</g>
<g>
</g>
<g>
</g>
<g>
</g>
<g>
</g>
<g>
</g>
<g>
</g>
</svg>
